<?xml version="1.0" encoding="utf-8"?>
<svg width="1419" height="473" viewBox="0 0 1419 473" fill="none" xmlns="http://www.w3.org/2000/svg">
  <defs>
    <clipPath id="clip_path_1">
      <rect width="1419" height="473" />
    </clipPath>
  </defs>
  <g clip-path="url(#clip_path_1)">
    <rect width="1419" height="473" fill="#FFFFFF" fill-rule="evenodd" fill-opacity="0" />
    <path d="M0 253L0 0L49 0L129 109L190 0L242 0L415 248L355 250L226 66.0001L148.615 176.095L129 204.001L49 105L49 251L0 253Z" fill="#FFFFFF" fill-rule="evenodd" transform="translate(21 114)" />
    <path d="M45.6821 102.621C45.6821 102.621 0 77.3159 0 77.3159C10.9506 57.5472 26.2265 40.5084 44.6865 27.4722C63.1466 14.4361 84.3135 5.73954 106.606 2.0322C128.899 -1.67515 151.742 -0.297462 173.427 6.06243C195.113 12.4223 215.081 23.5999 231.841 38.7604C231.841 38.7604 196.807 77.4885 196.807 77.4885C185.883 67.6062 172.866 60.3201 158.731 56.1744C144.595 52.0287 129.705 51.1307 115.173 53.5473C100.642 55.964 86.8442 61.6328 74.811 70.1304C62.7779 78.628 52.8203 89.7348 45.6821 102.621Z" fill="#FFFFFF" fill-rule="evenodd" transform="translate(270 105)" />
    <path d="M135.777 29.6064C135.777 29.6064 155.14 73.4131 155.14 73.4131C131.257 76.5144 88.5344 78.1336 58.1015 66.9553C27.6685 55.7769 17.6577 27.1905 0 0C0 0 21.5593 21.5034 59.4987 26.9427C97.4382 32.3821 115.53 35.666 135.777 29.6064Z" fill="#FFFFFF" fill-rule="evenodd" transform="translate(223 290)" />
    <path d="M0 42L0 0L87 0L87 96L47 129L21 93L42 73L42 42L0 42Z" fill="#FFFFFF" fill-rule="evenodd" transform="translate(410 223)" />
    <g transform="translate(228 230)">
      <rect width="22" height="22" fill="#FFFFFF" fill-rule="evenodd" />
      <rect width="22" height="22" fill="#FFFFFF" fill-rule="evenodd" transform="translate(27 0)" />
      <rect width="22" height="22" fill="#FFFFFF" fill-rule="evenodd" transform="translate(0 27)" />
      <rect width="22" height="22" fill="#FFFFFF" fill-rule="evenodd" transform="translate(27 27)" />
    </g>
    <path d="M40 24L1 88L0 0L41 0L40 24Z" fill="#FFFFFF" fill-rule="evenodd" transform="translate(146 113)" />
    <path d="M119 42.5L119 170.5L90 170.5L43.75 103.25L43 103.25L43 170.5L8.25 170.5L8.25 42.5L37.75 42.5L83.25 109.5L84.25 109.5L84.25 42.5L119 42.5ZM142.75 172.5Q135.5 172.5 130.344 167.406Q125.188 162.313 125.25 155Q125.188 147.875 130.344 142.813Q135.5 137.75 142.75 137.75Q149.625 137.75 154.906 142.813Q160.188 147.875 160.25 155Q160.188 162.313 154.906 167.406Q149.625 172.5 142.75 172.5ZM249.625 84.75Q248.063 78.1875 242.75 74.5938Q237.438 71 229.25 71Q216.125 71 208.938 80.3125Q201.75 89.625 201.75 106.25Q201.75 123.125 208.625 132.563Q215.5 142 229 142Q240.688 142 246.594 137.063Q252.5 132.125 252.75 123.75L229.5 123.75L229.5 99L286.25 99L286.25 116.75Q286.25 134.25 278.844 146.656Q271.438 159.063 258.469 165.656Q245.5 172.25 228.75 172.25Q210.063 172.25 195.938 164.313Q181.813 156.375 173.906 141.688Q166 127 166 106.75Q166 85.625 174.438 70.875Q182.875 56.125 197.063 48.4375Q211.25 40.75 228.5 40.75Q243.625 40.75 255.875 46.4063Q268.125 52.0625 275.781 61.9687Q283.438 71.875 284.75 84.75L249.625 84.75ZM424.25 42.5L424.25 170.5L395.25 170.5L349 103.25L348.25 103.25L348.25 170.5L313.5 170.5L313.5 42.5L343 42.5L388.5 109.5L389.5 109.5L389.5 42.5L424.25 42.5ZM428.75 170.5L428.75 42.5L463.5 42.5L463.5 142.5L515.25 142.5L515.25 170.5L428.75 170.5ZM636.25 106.5Q636.25 127.875 627.938 142.531Q619.625 157.188 605.5 164.719Q591.375 172.25 574 172.25Q556.5 172.25 542.406 164.656Q528.313 157.063 520.031 142.406Q511.75 127.75 511.75 106.5Q511.75 85.125 520.031 70.4688Q528.313 55.8125 542.406 48.2812Q556.5 40.75 574 40.75Q591.375 40.75 605.5 48.2812Q619.625 55.8125 627.938 70.4688Q636.25 85.125 636.25 106.5ZM600.5 106.5Q600.5 89.25 593.719 80.125Q586.938 71 574 71Q561.063 71 554.281 80.125Q547.5 89.25 547.5 106.5Q547.5 123.75 554.281 132.875Q561.063 142 574 142Q586.938 142 593.719 132.875Q600.5 123.75 600.5 106.5ZM751 42.5L751 170.5L722 170.5L675.75 103.25L675 103.25L675 170.5L640.25 170.5L640.25 42.5L669.75 42.5L715.25 109.5L716.25 109.5L716.25 42.5L751 42.5ZM838.625 84.75Q837.063 78.1875 831.75 74.5938Q826.438 71 818.25 71Q805.125 71 797.938 80.3125Q790.75 89.625 790.75 106.25Q790.75 123.125 797.625 132.563Q804.5 142 818 142Q829.688 142 835.594 137.063Q841.5 132.125 841.75 123.75L818.5 123.75L818.5 99L875.25 99L875.25 116.75Q875.25 134.25 867.844 146.656Q860.438 159.063 847.469 165.656Q834.5 172.25 817.75 172.25Q799.063 172.25 784.938 164.313Q770.813 156.375 762.906 141.688Q755 127 755 106.75Q755 85.625 763.438 70.875Q771.875 56.125 786.063 48.4375Q800.25 40.75 817.5 40.75Q832.625 40.75 844.875 46.4063Q857.125 52.0625 864.781 61.9687Q872.438 71.875 873.75 84.75L838.625 84.75Z" fill="#FFFFFF" transform="translate(530 91)" />
    <path d="M39.8864 14.4886L39.8864 58.125L34.7727 58.125L10.9943 23.8636L10.5682 23.8636L10.5682 58.125L5.28409 58.125L5.28409 14.4886L10.3977 14.4886L34.2614 48.8352L34.6875 48.8352L34.6875 14.4886L39.8864 14.4886ZM79.7386 14.4886L79.7386 58.125L74.4545 58.125L74.4545 14.4886L79.7386 14.4886ZM144.136 28.125Q142.751 23.821 139.587 21.3281Q136.423 18.8352 131.693 18.8352Q127.815 18.8352 124.641 20.8381Q121.466 22.8409 119.591 26.7401Q117.716 30.6392 117.716 36.3068Q117.716 41.9744 119.612 45.8736Q121.509 49.7727 124.747 51.7756Q127.986 53.7784 132.034 53.7784Q135.72 53.7784 138.565 52.2124Q141.409 50.6463 143.028 47.7805Q144.648 44.9148 144.733 40.9943L133.227 40.9943L133.227 36.3068L149.847 36.3068L149.847 40.9943Q149.847 46.3849 147.556 50.3693Q145.266 54.3537 141.249 56.5376Q137.233 58.7216 132.034 58.7216Q126.239 58.7216 121.86 55.9943Q117.482 53.267 115.042 48.2386Q112.602 43.2102 112.602 36.3068Q112.602 29.4034 115.042 24.375Q117.482 19.3466 121.796 16.6193Q126.111 13.892 131.693 13.892Q136.295 13.892 140.045 15.6925Q143.795 17.4929 146.288 20.6996Q148.781 23.9063 149.591 28.125L144.136 28.125ZM182.881 58.125L182.881 14.4886L209.216 14.4886L209.216 19.1761L188.165 19.1761L188.165 33.9205L207.852 33.9205L207.852 38.608L188.165 38.608L188.165 53.4375L209.557 53.4375L209.557 58.125L182.881 58.125ZM242.761 58.125L242.761 14.4886L257.506 14.4886Q262.619 14.4886 265.901 16.2251Q269.182 17.9616 270.759 20.9872Q272.335 24.0128 272.335 27.8693Q272.335 32.2159 270.343 35.4439Q268.351 38.6719 264.175 40.0994L274.04 58.125L267.903 58.125L258.699 41.0582Q258.166 41.0795 257.591 41.0795L248.045 41.0795L248.045 58.125L242.761 58.125ZM248.045 36.3068L257.42 36.3068Q262.662 36.3068 264.899 34.0483Q267.136 31.7898 267.136 27.8693Q267.136 23.9276 264.888 21.5518Q262.641 19.1761 257.335 19.1761L248.045 19.1761L248.045 36.3068ZM310.398 14.4886L310.398 58.125L305.114 58.125L305.114 14.4886L310.398 14.4886ZM346.756 58.125L341.216 58.125L357.239 14.4886L362.693 14.4886L378.716 58.125L373.176 58.125L368.787 45.767L351.145 45.767L346.756 58.125ZM352.807 41.0795L367.125 41.0795L360.136 21.392L359.795 21.392L352.807 41.0795ZM450.409 58.125L450.409 14.4886L455.693 14.4886L455.693 53.4375L475.977 53.4375L475.977 58.125L450.409 58.125ZM513.443 14.4886L513.443 58.125L508.159 58.125L508.159 14.4886L513.443 14.4886ZM548.011 14.4886L554.318 14.4886L569.148 50.7102L569.659 50.7102L584.489 14.4886L590.795 14.4886L590.795 58.125L585.852 58.125L585.852 24.9716L585.426 24.9716L571.79 58.125L567.017 58.125L553.381 24.9716L552.955 24.9716L552.955 58.125L548.011 58.125L548.011 14.4886ZM630.648 14.4886L630.648 58.125L625.364 58.125L625.364 14.4886L630.648 14.4886ZM662.83 19.1761L662.83 14.4886L695.557 14.4886L695.557 19.1761L681.835 19.1761L681.835 58.125L676.551 58.125L676.551 19.1761L662.83 19.1761ZM727.739 58.125L727.739 14.4886L754.074 14.4886L754.074 19.1761L733.023 19.1761L733.023 33.9205L752.71 33.9205L752.71 38.608L733.023 38.608L733.023 53.4375L754.415 53.4375L754.415 58.125L727.739 58.125ZM801.085 58.125L787.619 58.125L787.619 14.4886L801.682 14.4886Q808.031 14.4886 812.548 17.0987Q817.065 19.7088 819.473 24.5774Q821.881 29.446 821.881 36.2216Q821.881 43.0398 819.452 47.951Q817.023 52.8622 812.378 55.4936Q807.733 58.125 801.085 58.125ZM792.903 53.4375L800.744 53.4375Q808.862 53.4375 812.815 48.8246Q816.767 44.2116 816.767 36.2216Q816.767 28.2955 812.889 23.7358Q809.011 19.1761 801.341 19.1761L792.903 19.1761L792.903 53.4375ZM855 58.4659Q853.423 58.4659 852.294 57.3366Q851.165 56.2074 851.165 54.6307Q851.165 53.054 852.294 51.9247Q853.423 50.7955 855 50.7955Q856.577 50.7955 857.706 51.9247Q858.835 53.054 858.835 54.6307Q858.835 56.2074 857.706 57.3366Q856.577 58.4659 855 58.4659Z" fill="#FFFFFF" transform="translate(532 273)" />
  </g>
</svg>